<svg xmlns="http://www.w3.org/2000/svg" width="108.7" height="70.735" viewBox="0 0 108.7 70.735"><defs><style>.a{fill:#efa500;}.b{fill:#7f961e;}.c{fill:#008cff;}.d{fill:#e26003;}.e{fill:#FFFF;}</style></defs><g transform="translate(10.816 0)"><path class="a" d="M457.433,409.849a16.754,16.754,0,0,1,11.012-17.329c12.66-5.035,19.7,3.244,22.5,8.711a29.161,29.161,0,0,1,2.89,8.684h-6.644s-3.427-13-13.053-12.791c-8.226.183-11.313,9.888-11.169,12.856Z" transform="translate(-423.471 -372.718)"/><path class="b" d="M684.818,390.231s-1.046-9.3,4.094-15.825c6.369-8.083,17.107-5.794,17.107-5.794V374.1a10.594,10.594,0,0,0-11.575,3.191c-3.544,4.185-3,12.935-3,12.935Z" transform="translate(-619.59 -353.035)"/><path class="c" d="M296.637,468.48s2.747-7.18,9.024-5.977a10.146,10.146,0,0,1,7.233,5.977h5.48s-3.492-9.757-13.118-10.215C293.733,457.716,291,468.532,291,468.532" transform="translate(-282.054 -431.205)"/><circle class="d" cx="5.022" cy="5.022" r="5.022" transform="translate(12.137 13.615)"/><circle class="b" cx="6.67" cy="6.67" r="6.67" transform="translate(55.63)"/><path class="d" d="M222.6,423.637s5.232-.759,7.834,3.165c2.093,3.165,1.112,7.756,1.112,7.756h5.637s.667-6.278-3.4-10.882c-4.434-5.022-11.182-4.486-11.182-4.486Z" transform="translate(-222.6 -397.244)"/></g><g transform="translate(0 49.43)"><path class="e" d="M141.875,606.433c0-.785-.039-3.348-.065-3.688-.065-1.229-.405-1.269-1.1-1.269h-.667c-.144,0-.144-.026-.144-.2V600.8c0-.131.026-.2.17-.2.275,0,1.282.066,3.3.066.68,0,1.936-.066,3.374-.066a8.074,8.074,0,0,1,3.61.576,2.951,2.951,0,0,1,1.622,2.864c0,1.386-.85,2.747-3.074,3.479v.039c2.616.68,3.989,1.936,3.989,4.172a3.846,3.846,0,0,1-1.648,3.2,11.2,11.2,0,0,1-4.957.785c-.2,0-.732-.039-1.334-.065s-1.269-.065-1.661-.065c-1.059,0-1.753.026-2.21.026-.445.026-.68.039-.824.039-.209,0-.235-.065-.235-.235v-.458c0-.131.026-.17.209-.17h.732c.628,0,.732-.248.824-.889.065-.484.1-3.27.1-5v-2.472Zm3.087.876a4.294,4.294,0,0,0,2.825-.589,3.294,3.294,0,0,0,1.007-2.485,2.692,2.692,0,0,0-.863-2.132,3.986,3.986,0,0,0-1.988-.759c-.445,0-.9.026-.929.353-.039.419-.065,2.263-.065,4v1.609Zm0,4.891c0,2,.458,2.825,1.583,2.825,1.5,0,2.917-.732,2.917-3.374a3.216,3.216,0,0,0-1.9-3.27,6.786,6.786,0,0,0-2.59-.353V612.2Z" transform="translate(-139.9 -600.064)"/><path class="e" d="M252.211,651.99c0,.654.209.863.654.863h.863c.131,0,.144.065.144.2v.419c0,.131-.026.2-.1.2-.131,0-1.1-.065-3-.065-1.622,0-2.511.065-2.642.065-.078,0-.131-.039-.131-.209v-.406c0-.144.039-.2.235-.2h.615a.489.489,0,0,0,.549-.51c.039-.589.039-1.334.039-2.38v-1.753a1.552,1.552,0,0,0-.85-1.648l-.353-.209c-.131-.065-.17-.1-.17-.2v-.2c0-.078.039-.131.17-.17l2.956-1.282a1.069,1.069,0,0,1,.34-.078.267.267,0,0,1,.249.248l.2,1.648h.144a2.955,2.955,0,0,1,2.511-2.027,1.127,1.127,0,0,1,1.112,1.229,1.385,1.385,0,0,1-1.347,1.2,1.332,1.332,0,0,1-.759-.2.991.991,0,0,0-.523-.144.6.6,0,0,0-.549.379,2.957,2.957,0,0,0-.353,1.242Z" transform="translate(-233.862 -638.048)"/><path class="e" d="M316.015,624.633c-.17,0-1.138-.065-2.969-.065-1.229,0-2.04.065-2.276.065-.1,0-.17-.039-.17-.209v-.432c0-.131.065-.17.209-.17h.785c.235,0,.379-.079.405-.419.039-.628.039-1.282.039-1.883L312,618.564c0-.589-.131-1.007-1.007-1.334-.235-.078-.248-.17-.248-.3v-.235c0-.065.039-.1.235-.17l3.139-1.007a1.946,1.946,0,0,1,.576-.131.19.19,0,0,1,.209.249c-.039.353-.039,1.687-.039,3.544v2.263c0,.824,0,1.582.026,1.818.039.405.144.549.379.549h.759c.17,0,.209.065.209.2v.405C316.2,624.567,316.158,624.633,316.015,624.633Zm-2.89-10.829a1.492,1.492,0,0,1-1.543-1.517,1.573,1.573,0,0,1,1.648-1.386,1.426,1.426,0,0,1,1.556,1.334A1.58,1.58,0,0,1,313.124,613.8Z" transform="translate(-287.208 -609.017)"/><path class="e" d="M366.312,598.906c-.026-.589-.249-.929-1.373-1.2-.131-.026-.144-.065-.144-.144v-.405c0-.078.039-.144.17-.17,1.242-.1,2.864-.235,3.57-.379a2.538,2.538,0,0,1,.549-.1c.131,0,.209.144.2.379-.078,1.059-.131,4.12-.131,7.089v4.656a4.826,4.826,0,0,0,.209,1.936c.17.275.445.3.955.235.235-.026.314.039.34.144l.065.314a.181.181,0,0,1-.144.235l-3.165.8c-.131.039-.235-.026-.3-.2l-.34-1.059a4.126,4.126,0,0,1-2.825,1.282,2.866,2.866,0,0,1-2.511-1.007,3.7,3.7,0,0,1-1.334-3,5.34,5.34,0,0,1,1.478-4.094,3.938,3.938,0,0,1,3.126-1.347,5.319,5.319,0,0,1,1.713.275Zm.065,6.775a2.207,2.207,0,0,0-.17-1.007,1.938,1.938,0,0,0-1.609-.955,1.3,1.3,0,0,0-1.1.589,3.756,3.756,0,0,0-.68,2.42c0,2.485,1.072,4.224,2.38,4.224a1.217,1.217,0,0,0,1.007-.418,1.561,1.561,0,0,0,.209-1.007Z" transform="translate(-329.851 -596.5)"/><path class="e" d="M444.133,659.73a1.759,1.759,0,0,1-1.033-1.648c0-1.059,1.177-1.818,2.171-2.21v-.1a1.8,1.8,0,0,1-1.452-1.687c0-1.229,1.177-1.9,1.883-2.237v-.065a3.446,3.446,0,0,1-1.857-3.2c0-1.373,1.1-3.073,4.094-3.073a3.876,3.876,0,0,1,2.969,1.177,3.274,3.274,0,0,1,1.857-.732,1.031,1.031,0,0,1,1.164,1.1.945.945,0,0,1-.929.9.685.685,0,0,1-.654-.353.74.74,0,0,0-.589-.314.653.653,0,0,0-.405.2,3.169,3.169,0,0,1,.248,1.373,3.008,3.008,0,0,1-.955,2.276,4.288,4.288,0,0,1-2.851,1.007,8.606,8.606,0,0,1-1.242-.065c-.275.17-.785.549-.785.968,0,.732.615.8,2.89.732a4.972,4.972,0,0,1,3.544.85,2.607,2.607,0,0,1,1.033,2.132,2.985,2.985,0,0,1-1.229,2.341,7.477,7.477,0,0,1-4.512,1.308A8,8,0,0,1,444.133,659.73Zm6.853-1.962c0-1.164-.824-1.792-2.747-1.713l-1.831.078a1.5,1.5,0,0,0-1.059,1.439,1.854,1.854,0,0,0,.732,1.439,3.323,3.323,0,0,0,2.132.549C449.613,659.56,450.986,658.814,450.986,657.768Zm-4.2-10.8a4.8,4.8,0,0,0-.419,2.341,2.862,2.862,0,0,0,.458,1.609,1.127,1.127,0,0,0,.968.419c.929,0,1.242-1.413,1.242-3.034a3.129,3.129,0,0,0-.2-1.412,1.026,1.026,0,0,0-1.033-.589C447.364,646.285,447.089,646.546,446.788,646.965Z" transform="translate(-401.445 -639.091)"/><path class="e" d="M529.733,649.384v.575c0,2.2,1.243,3.27,2.786,3.27a2.663,2.663,0,0,0,2.3-1.164.125.125,0,0,1,.209-.065l.353.2c.078.039.144.144-.039.51a4.394,4.394,0,0,1-3.727,2.237,4.132,4.132,0,0,1-3.165-.994A4.6,4.6,0,0,1,527,650.326a5.016,5.016,0,0,1,.955-3.1,4.232,4.232,0,0,1,3.675-1.726,3.532,3.532,0,0,1,3.61,3.61c0,.275-.2.3-.654.3h-4.852Zm2.053-.8c.458,0,.68-.1.68-.418,0-.929-.379-1.831-1.033-1.831-.994,0-1.517.785-1.661,2.263h2.014Z" transform="translate(-473.882 -639.091)"/><path class="e" d="M605.657,609.184c0,.353,0,4.918.065,5.755h1.2c.994,0,1.936,0,3.073-.1s2.577-2.642,2.89-3.414c.065-.131.131-.2.249-.131l.419.17c.065.039.065.065.039.2-.065.144-.9,3.623-1.033,4.2-.549-.039-6.618-.065-8.567-.065-2.093,0-2.851.065-3.126.065-.144,0-.17-.039-.17-.2v-.523c0-.1.026-.144.144-.144h.654c.785,0,.9-.3.9-.523,0-.405.065-5.65.065-6.945v-1.177c0-1.347-.039-3.584-.065-3.924-.039-.549-.144-.759-.628-.759h-.785c-.131,0-.144-.1-.144-.209v-.51c0-.1.026-.144.144-.144.235,0,.994.065,2.917.065,2.472,0,3.348-.065,3.544-.065.17,0,.2.065.2.209v.484c0,.1-.039.17-.209.17h-.994c-.654,0-.732.209-.732.785,0,.275-.065,3.466-.065,4.931v1.8Z" transform="translate(-537.324 -600.238)"/><path class="e" d="M711.856,647.919a1.637,1.637,0,0,0-.314-1.164,1.306,1.306,0,0,0-.889-.249,1.843,1.843,0,0,0-1.112.34c-.314.209-.065.576-.065,1.242a1.213,1.213,0,0,1-1.373,1.2.823.823,0,0,1-.9-.759,1.988,1.988,0,0,1,.589-1.478,6.2,6.2,0,0,1,4.054-1.556c1.347,0,1.713.209,2.158.615a2.282,2.282,0,0,1,.589,1.792l.039,4.2c.026,1.1.078,1.439.484,1.439a.784.784,0,0,0,.615-.379c.078-.131.144-.144.209-.1l.3.17c.078.039.144.1.065.3a2.34,2.34,0,0,1-2.132,1.439,1.973,1.973,0,0,1-2-1.282h-.1a4.817,4.817,0,0,1-1.818,1.1,4.646,4.646,0,0,1-1.517.2c-.732,0-1.386-.8-1.386-1.936a2.814,2.814,0,0,1,1.818-2.576,20.78,20.78,0,0,0,2.72-1.386v-1.164Zm.013,1.962c-1.033.589-1.9.9-1.9,2.367,0,.968.445,1.373.9,1.386a1.164,1.164,0,0,0,.994-.759Z" transform="translate(-629.328 -639.091)"/><path class="e" d="M775.767,612.412a.258.258,0,0,1-.248.039l-.3-.1c-.078-.026-.1-.065-.078-.17.065-.3.065-2.04.065-3.623v-7.873c0-1.413-.275-1.661-.929-1.857l-.3-.078c-.235-.065-.274-.1-.274-.17v-.249c0-.065.039-.144.235-.209a24.982,24.982,0,0,0,3.2-1.2c.353-.2.523-.314.732-.314s.248.144.248.353c0,.17-.144,2.576-.17,4.643L777.911,604A3.829,3.829,0,0,1,780.736,603a3.637,3.637,0,0,1,3,1.792,4.911,4.911,0,0,1,.615,2.72,5.2,5.2,0,0,1-4.826,4.931,6.7,6.7,0,0,1-2.891-.549Zm2.171-4.774c0,1.753-.026,2.537.248,3.074a1.392,1.392,0,0,0,1.229.9,1.8,1.8,0,0,0,1.752-1.1,4.49,4.49,0,0,0,.34-2.341c0-2.786-1.164-3.714-2.263-3.714a2.529,2.529,0,0,0-1.308.405Z" transform="translate(-686.108 -596.587)"/><path class="e" d="M868.538,653.449c.589,0,1.648-.353,3.2-2.171.131-.144.209-.144.275-.1l.275.209c.078.065.1.1.039.209l-1.413,2.864a10.566,10.566,0,0,0-2.419-.209c-1.059-.039-2.132-.039-2.577-.039h-2.459c-.236,0-.34-.144-.079-.549l4.892-7.573H866.8c-1.112,0-1.622.2-3.309,2.3a.162.162,0,0,1-.249.026l-.249-.17c-.065-.039-.078-.1-.039-.209L864.13,645a11.076,11.076,0,0,0,1.229.235,17.69,17.69,0,0,0,2.864.131h3.27c.209,0,.314.209.2.419l-5.022,7.677h1.87Z" transform="translate(-763.668 -638.657)"/></g></svg>